<svg xmlns="http://www.w3.org/2000/svg" shape-rendering="geometricPrecision" text-rendering="geometricPrecision" image-rendering="optimizeQuality" fill-rule="evenodd" clip-rule="evenodd" viewBox="0 0 305 512.217"><path fill-rule="nonzero" d="M127.281 13.561v489.713a8.944 8.944 0 01-14.294 7.166L4.193 441.706a8.908 8.908 0 01-4.166-7.545H0V87.808a8.944 8.944 0 014.645-7.844L113.343 6.191a8.904 8.904 0 0113.899 7.37h.039z"/><path fill="#CFDFE8" d="M118.338 13.561v489.713L8.943 434.161V87.808z"/><path fill-rule="nonzero" d="M296.931 494.374l-176.995 17.7a8.944 8.944 0 01-10.54-8.8V13.561h.015c-.004-4.376 3.212-8.203 7.67-8.836 32.714-4.714 64.305-6.004 94.617-3.402 30.31 2.601 59.382 9.083 87.061 19.903 3.618 1.146 6.241 4.531 6.241 8.527v455.749h-.027c.005 4.535-3.436 8.419-8.042 8.872z"/><path fill="#99A2AA" d="M118.338 503.274l177.719-17.772V29.753C242.041 8.511 182.399 4.331 118.338 13.561v489.713z"/><path fill-rule="nonzero" d="M118.338 110.274a4.454 4.454 0 010-8.907c29.101-.084 58.461.859 88.085 2.868 29.667 2.012 59.739 5.099 90.228 9.297a4.459 4.459 0 01-1.188 8.837c-30.195-4.158-60.071-7.223-89.633-9.227-29.608-2.008-58.768-2.951-87.492-2.868zM118.338 57.689a4.454 4.454 0 010-8.907c29.101-.084 58.461.858 88.085 2.867 29.667 2.012 59.739 5.1 90.228 9.298a4.459 4.459 0 013.824 5.012 4.459 4.459 0 01-5.012 3.824c-30.195-4.158-60.071-7.222-89.633-9.226-29.608-2.009-58.768-2.952-87.492-2.868zM302.764 330.99v154.245h-.021a6.686 6.686 0 01-6.031 6.654l-177.159 17.982a6.707 6.707 0 01-7.922-6.597V343.12h.024a6.683 6.683 0 018.543-6.418c13.531 3.938 35.757-2.373 60.362-9.362 39.345-11.175 84.357-23.954 118.652-2.269a6.705 6.705 0 013.552 5.919z"/><path fill="#5A6470" d="M296.057 485.235V330.99c-53.117-34.158-139.343 23.3-177.719 12.13v160.154l177.719-18.039z"/><path fill-rule="nonzero" d="M207.198 366.934c5.484 0 10.472 2.239 14.097 5.86l.014-.013a19.895 19.895 0 015.847 14.111c0 5.509-2.236 10.5-5.847 14.111a19.9 19.9 0 01-14.111 5.847c-5.511 0-10.5-2.236-14.111-5.847a6.885 6.885 0 01-.418-.458c-3.367-3.584-5.429-8.389-5.429-13.653 0-5.479 2.233-10.459 5.847-14.085l.041-.041c3.624-3.604 8.598-5.832 14.07-5.832z"/><circle fill="#DD3E46" cx="207.198" cy="386.892" r="13.251"/><path fill-rule="nonzero" d="M202.726 421.4a4.472 4.472 0 018.943 0v23.594a4.472 4.472 0 01-8.943 0V421.4z"/></svg>